<svg height="456pt" viewBox="-4 0 456 456" width="456pt" xmlns="http://www.w3.org/2000/svg"><path fill="#484848" d="m144 424h160c13.253906 0 24-10.746094 24-24v-40h-208v40c0 13.253906 10.746094 24 24 24zm0 0"/><path fill="#484848" d="m384 144c0-13.253906-10.746094-24-24-24h-8v32c-.152344 58.296875-39.582031 109.164062-96 123.847656v20.152344c0 17.671875-14.328125 32-32 32s-32-14.328125-32-32v-20.152344c-56.417969-14.683594-95.847656-65.550781-96-123.847656v-32h-8c-13.253906 0-24 10.746094-24 24v288c0 13.253906 10.746094 24 24 24h272c13.253906 0 24-10.746094 24-24zm-40 256c-.027344 22.082031-17.917969 39.972656-40 40h-160c-22.082031-.027344-39.972656-17.917969-40-40v-56h240zm0 0"/><path fill="#484848" d="m0 400c0 13.253906 10.746094 24 24 24h24v-144h-24c-13.253906 0-24 10.746094-24 24zm0 0"/><path fill="#484848" d="m448 304c0-13.253906-10.746094-24-24-24h-24v144h24c13.253906 0 24-10.746094 24-24zm0 0"/><path fill="#484848" d="m208 248v48c0 8.835938 7.164062 16 16 16s16-7.164062 16-16v-48c0-8.835938-7.164062-16-16-16s-16 7.164062-16 16zm0 0"/><path fill="#484848" d="m112 96v56c.105469 49.503906 32.59375 93.101562 80 107.359375v-11.359375c0-17.671875 14.328125-32 32-32s32 14.328125 32 32v11.359375c47.40625-14.257813 79.894531-57.855469 80-107.359375v-56c0-4.417969-3.582031-8-8-8h-208c-4.417969 0-8 3.582031-8 8zm136 8h16v16h-16zm-32 0h16v16h-16zm-32 0h16v16h-16zm0 0"/><path fill="#484848" d="m296 72h-16c0-30.929688-25.070312-56-56-56s-56 25.070312-56 56h-16c0-39.765625 32.234375-72 72-72s72 32.234375 72 72zm0 0"/></svg>