<svg height="512pt" viewBox="-77 0 512 512" width="512pt" xmlns="http://www.w3.org/2000/svg"><path d="m133.652344 0c-8.277344 0-14.988282 6.710938-14.988282 14.992188v69.484374h-29.351562v-69.488281c0-8.277343-6.710938-14.988281-14.992188-14.988281-8.277343 0-14.988281 6.710938-14.988281 14.988281v69.488281h-29.351562v-69.484374c0-8.28125-6.710938-14.992188-14.992188-14.992188-8.277343 0-14.988281 6.710938-14.988281 14.992188v84.464843.011719 14.476562c0 33.5625 26.390625 61.007813 59.332031 62.351563v30.648437c4.410157-.96875 8.980469-1.488281 13.671875-1.488281h2.636719c4.691406 0 9.261719.519531 13.671875 1.488281v-30.648437c32.941406-1.34375 59.332031-28.789063 59.332031-62.351563v-14.46875c0-.003906 0-.007812 0-.007812v-84.476562c0-8.28125-6.710937-14.992188-14.992187-14.992188zm0 0"/><path d="m75.640625 235.4375h-2.636719c-19.316406 0-35.027344 16.320312-35.027344 36.382812v203.796876c0 20.0625 15.710938 36.382812 35.027344 36.382812h2.636719c19.3125 0 35.027344-16.324219 35.027344-36.382812v-203.796876c0-20.0625-15.714844-36.382812-35.027344-36.382812zm0 0"/><path d="m338.625 38.535156c-15.5-24.851562-35.386719-38.535156-55.992188-38.535156-20.609374 0-40.496093 13.683594-55.996093 38.53125-12.460938 19.980469-20.203125 44.378906-20.203125 63.675781 0 35.597657 26.347656 65.363281 61.210937 72.101563v32.179687c4.414063-.96875 8.984375-1.492187 13.671875-1.492187h2.636719c4.691406 0 9.261719.523437 13.671875 1.492187v-32.179687c34.859375-6.742188 61.203125-36.507813 61.203125-72.101563 0-19.296875-7.742187-43.695312-20.203125-63.671875zm0 0"/><path d="m283.953125 234.976562h-2.636719c-19.3125 0-35.027344 16.355469-35.027344 36.453126v204.113281c0 20.105469 15.714844 36.457031 35.027344 36.457031h2.636719c19.316406 0 35.027344-16.351562 35.027344-36.457031v-204.113281c0-20.097657-15.710938-36.453126-35.027344-36.453126zm0 0"/></svg>