<?xml version="1.0" encoding="iso-8859-1"?>
<!-- Generator: Adobe Illustrator 16.0.0, SVG Export Plug-In . SVG Version: 6.00 Build 0)  -->
<!DOCTYPE svg PUBLIC "-//W3C//DTD SVG 1.1//EN" "http://www.w3.org/Graphics/SVG/1.1/DTD/svg11.dtd">
<svg version="1.1" id="Capa_1" xmlns="http://www.w3.org/2000/svg" xmlns:xlink="http://www.w3.org/1999/xlink" x="0px" y="0px"
	 width="282.166px" height="282.166px" viewBox="0 0 282.166 282.166" style="enable-background:new 0 0 282.166 282.166;"
	 xml:space="preserve">
<g>
	<g>
		<path fill="#484848" d="M23.23,0v282.166l117.856-59.046l117.851,59.046V0H23.23z M179,161.932H95.222c-3.402,0-6.149-2.756-6.149-6.155
			c0-3.398,2.747-6.155,6.149-6.155H179c3.405,0,6.149,2.757,6.149,6.155C185.149,159.176,182.405,161.932,179,161.932z
			 M179,118.589H95.222c-3.402,0-6.149-2.756-6.149-6.155c0-3.401,2.747-6.158,6.149-6.158H179c3.405,0,6.149,2.756,6.149,6.158
			C185.149,115.833,182.405,118.589,179,118.589z M179,66.482H95.222c-3.402,0-6.149-2.756-6.149-6.155
			c0-3.401,2.747-6.155,6.149-6.155H179c3.405,0,6.149,2.753,6.149,6.155C185.149,63.726,182.405,66.482,179,66.482z"/>
	</g>
</g>
<g>
</g>
<g>
</g>
<g>
</g>
<g>
</g>
<g>
</g>
<g>
</g>
<g>
</g>
<g>
</g>
<g>
</g>
<g>
</g>
<g>
</g>
<g>
</g>
<g>
</g>
<g>
</g>
<g>
</g>
</svg>
